<?xml version="1.0" encoding="utf-8"?>
<!-- Generator: Adobe Illustrator 21.1.0, SVG Export Plug-In . SVG Version: 6.00 Build 0)  -->
<svg version="1.1" id="Calque_1" xmlns="http://www.w3.org/2000/svg" xmlns:xlink="http://www.w3.org/1999/xlink" x="0px" y="0px"
	 viewBox="0 0 1345.8 408.7" style="enable-background:new 0 0 1345.8 408.7;" xml:space="preserve">
<style type="text/css">
	.st0{fill:#FFFFFF;}
</style>
<g>
	<path class="st0" d="M72.9,160.8v-0.1c0.2-1.8,0.4-3.7,0.6-5.5l0.2-1.5c0.1-0.7,0.2-1.4,0.4-2.1l0.4-2.2c0.4-2,0.7-4.1,1.2-6.1
		c0.4-1.9,0.8-3.8,1.3-5.6c0.2-0.9,0.4-1.7,0.6-2.6l1.7-7.5l-5.2-4.4l-1.5,3.9c-0.1,0.2-0.1,0.3-0.2,0.5c0,0.1,0,0.1-0.1,0.2
		c-0.3,0.5-0.7,1.1-1,1.6c-1,1.6-1.9,3.1-3,4.5c-3.5,4.7-5.8,9.9-7.6,14.3c-1.9,4.7-3.1,9-3.7,13.3c-0.6,4.3-1.1,8.5-1.4,12.7
		c-0.2,2.6,0.1,5,0.3,7.4c0.1,1,0.2,1.9,0.2,2.9c0.4,5.6,1.1,10.8,2.2,15.9c1.1,4.9,2.5,9.8,4.4,14.9c3.2,8.7,7.5,17.4,12.7,25.6
		c2.7,4.2,5.6,8.4,8.5,12.4l2.1,2.9c1.5,2.2,3.2,4.4,5.1,6.8c3.6,4.5,7.1,8.9,11.1,13.7c0.5,0.6,1.1,1.2,1.6,1.7
		c0.2,0.2,0.4,0.4,0.6,0.6l1.8,1.9l4.4-3.3l-1-2.2c-0.2-0.5-0.4-1-0.7-1.5c-0.5-1.1-1-2.3-1.6-3.5c-1.1-2.1-2.2-4.2-3.3-6.4
		c-0.8-1.5-1.5-2.9-2.3-4.4s-1.6-3-2.4-4.6c-1.1-2.2-2.3-4.4-3.4-6.6c-1-2-2.1-3.9-3.2-5.8c-1.9-3.5-3.9-7-5.6-10.6
		c-3.8-7.8-8-16.9-10.8-26.5c-1.4-4.7-2.5-9.7-3.3-14.8c-0.5-2.8-0.5-5.6-0.6-8.7v-1.4c-0.1-3.7-0.1-7.6,0-11.6
		C72.4,166.5,72.7,163.6,72.9,160.8z"/>
	<path class="st0" d="M172.8,7.6c-1.8-3-5-3-6.1-3c-25.6,0-51.2,0-76.7,0l0,0c-2.7,0-5.2,1-7.4,3.1c-2,1.9-3.1,4.5-3,7.1
		c0,2.5,1.1,4.8,2.9,6.4c1.2,1.1,2.5,2,3.7,2.6c1.8,0.9,3.7,1.8,5.5,2.8c2,1,4.2,2.1,6.2,3.1c3.9,2,6.9,4.6,9,7.7
		c2.6,3.7,4.2,8.3,5.1,14c0.2,1.1,0.2,2.2,0.3,3.4c0,0.6,0.1,1.2,0.1,1.7l0.2,2l4.7,1.5l1.3-1.8c0.3-0.4,0.6-0.8,0.9-1.3
		c0.7-1,1.5-2,2.1-3.1c1.7-2.8,2.9-5.9,3.9-10c1.2-4.9,0.4-9.5-0.4-13.3c-0.6-2.5-2-4.7-3.2-6.6c-0.2-0.4-0.5-0.7-0.7-1.1
		c-0.8-1.4-1.8-2.6-2.7-3.8c-0.4-0.5-0.8-1.1-1.2-1.6c-0.3-0.4-0.3-0.7-0.2-0.9c0.1,0,0.2,0,0.3,0c0.5,0,0.9,0,1.5,0h9.1
		c12.3,0,25.1,0,37.6,0c1.8,0,3.5-0.7,5.1-1.4c1.4-0.6,2.4-1.8,2.8-3.1C173.8,10.5,173.6,9,172.8,7.6z"/>
	<path class="st0" d="M110,388.4c2-1.8,4-3.7,5.7-6c2.1-2.8,3.9-6.1,5.4-10c1.2-3,2-6.3,2.5-10.1c0.6-4.5,0.5-9,0.3-12.8
		c-0.1-2.2-0.7-4.3-1.3-6.2c-0.8-2.6-1.5-4.8-2.4-6.8l-0.1-0.3c-1.1-2.6-2.3-5.4-3.8-7.9c-3.3-5.6-7.1-10.9-11.1-15.9
		c-3.4-4.1-6.9-8.3-10.7-12.8c-1.4-1.7-2.9-3.3-4.3-4.9c-2.3-2.7-4.8-5.4-7-8.2c-3.5-4.4-7.1-9.2-11-14.7l-2.1-3
		c-5-7.1-10.2-14.5-14.5-22.2l-1.3-2.4c-2.6-4.6-5.3-9.4-7.6-14.2c-2.8-5.8-5.2-11.6-7.2-17.2c-1.6-4.4-2.7-9.1-3.9-13.6l-0.5-2.1
		c-0.7-2.8-1.2-5.8-1.7-8.7l-0.1-0.8c-0.3-1.5-0.4-3.2-0.4-4.6c-0.1-1.1-0.1-2.1-0.1-3.2c0-1.4,0-2.8-0.1-4.3
		c-0.1-0.9-0.2-1.8-0.4-2.6c-0.2-0.9-0.3-1.7-0.3-2.5c0-0.9,0.1-1.8,0.3-2.8c0.2-1.3,0.4-2.6,0.3-4.1c-0.1-4.5,0.6-8.9,1.5-13.8
		c0.8-4.6,2.2-9.3,4.2-14.1c0.6-1.6,1.4-3.4,2.3-5c0.5-0.8,0.9-1.6,1.3-2.3c1.4-2.6,2.8-5,4.7-7.1c0.8-0.9,1.6-1.8,2.3-2.7
		c1-1.2,2-2.4,3-3.4c2.7-2.5,5.4-4.7,8-6.5c3.9-2.7,8.1-5.4,12.5-8c2.9-1.7,6-3.3,9-4.9c1.2-0.6,2.5-1.3,3.7-1.9
		C91,90.4,95.6,86,98.6,80.4c2.2-4.2,3.5-8.9,3.8-13.9c0.2-3.7-0.4-7.5-2.1-12.1c-2.3-6.6-6.6-11.6-12.8-14.8
		c-4.7-2.5-10-3.7-15.7-3.6c-1.7,0-3.6,0.2-5.7,0.6c-2.8,0.5-5,1-7,1.6c-3.6,1.1-6.5,3-9.4,5C47.3,45,45,47.1,43,49.8
		c-2.8,3.6-5,7.9-6.5,13c-0.4,1.4-0.9,2.9-1.1,4.5c-0.1,0.9-0.2,1.8-0.2,2.7c-0.1,1.1-0.1,2.2-0.4,3c-0.8,2.7-0.5,5.2-0.2,7.4
		c0.1,1.1,0.3,2.1,0.2,3.1c0,1.7,0.2,3.5,0.8,5.6c0.4,1.4,0.9,2.8,1.4,4.1c0.3,0.9,0.6,1.7,0.9,2.5c-1.4,1.5-2.9,3-4.1,4.1
		c-3.4,3.2-6.5,7-9.4,11.3c-1.9,2.8-4.3,6.5-6.4,10.5c-1.8,3.6-3.3,7.3-4.6,10.8c-1,2.8-1.7,5.8-2.3,8.3l-0.4,1.8
		c-0.8,3.7-1.7,7.4-2.2,11.3c-0.6,4.1-0.6,8.1-0.7,11.9c0,1.2,0,2.5,0,3.7c-0.1,5-0.1,10.1,0.7,15.2c0.2,1,0.3,2.1,0.4,3.2
		c0.1,1.4,0.3,2.9,0.5,4.3c0.4,2.1,0.9,4.2,1.5,6.2c0.1,0.5,0.3,1.1,0.4,1.6c0.2,0.9,0.5,1.7,0.7,2.6c0.7,2.7,1.4,5.5,2.3,8.3
		c1.1,3.4,2.4,7.1,4,10.7c1.6,3.8,3.3,7.8,5.4,11.7c2.5,4.7,5.2,9.2,7.8,13.7l1.4,2.3c1.8,3.1,3.7,6.2,5.8,9.2
		c4.9,7,9.6,13.4,14.3,19.5c4.2,5.5,8.4,10.8,13.5,17.1c1.7,2.1,3.6,4.3,5.3,6.3c1.5,1.7,3,3.5,4.5,5.3c2.3,2.8,4.6,5.6,6.8,8.4
		c0.9,1.1,1.7,2.1,2.6,3.2l2.3,2.9c2.4,3,4.8,5.9,7.1,8.9c3.6,4.6,6.3,9,8.3,13.2c1.5,3.4,3,7,2.8,11c-0.1,2.1-0.2,4.1-0.5,6.1
		c-1,5.5-3.5,9.1-8,11.3c-2.9,1.4-5.9,2.7-8.7,3.7c-3.5,1.2-6.3,2.8-8.7,4.7c-5.1,4.2-7.2,9.9-6.3,16.8l0.3,2.5l5,0.2h89.5
		c0,0,4.2-0.7,4.2-5.8s-4.2-5.6-4.2-5.6h-3C163.7,388.4,125.1,388.4,110,388.4z M80,70.9c-0.1,0.4-0.2,0.7-0.2,0.9
		c-1.1,4.3-3.8,5.8-3.9,5.8l-1.1,0.7c-2.2,0.8-12,4.3-17,7.2c-0.3-1.3-0.3-2.8-0.4-4.2v-0.4c-0.1-3.8,0-7.6,0.5-11.5l0,0
		c0.4-3.6,1.8-6.7,4.1-9.3c1.2-1.3,2.8-2.2,4.9-2.8c1.7-0.5,3.3-0.7,4.9-0.7c0.4,0,0.9,0,1.3,0.1h0.2c2.9,0.2,3.7,0.3,5.3,2.9
		c2,3.3,2,3.3,2.2,5.5C81,66.5,80.3,69.7,80,70.9z"/>
	<g>
		<path class="st0" d="M199,37.5h10.9l63.8,133.8l63.6-133.8h11.1v146.6h-9.7V58h-1l-60.1,126.2h-7.8L209.7,58h-1v126.2H199V37.5z"
			/>
		<path class="st0" d="M465.9,184.1h-9.5v-19.6c-5.2,10.5-17.3,21.7-38,21.7c-23.1,0-42.9-14.2-42.9-46.3V76.7h9.5v62.4
			c0,26.2,15.9,38.2,35.3,38.2s36.1-12,36.1-38.2V76.7h9.5V184.1z"/>
		<path class="st0" d="M487,157.9l8.5-2.3c3.7,14.7,14.7,21.9,27.7,21.9c12.4,0,25-6.2,25-20.9c0-12.2-8.3-17.3-23.5-23.7l-7.2-3.1
			c-17.8-7.4-25-17.6-25-29.1c0-15.3,12.8-26,30.1-26c15.3,0,27,8.5,31,21.5l-7.8,2.9c-3.7-9.3-10.5-15.7-22.9-15.7
			c-10.9,0-20.9,5.4-20.9,17.3c0,8.9,5.4,15.3,18.8,21.1l6.2,2.5c19.6,8.3,30.8,15.5,30.8,32.4c0,20.6-17.8,29.5-34.7,29.5
			C503.7,186.2,490.3,175,487,157.9z"/>
		<path class="st0" d="M574.3,130.2c0-35.9,25.8-55.5,52.7-55.5c27.3,0,54.1,20,51,59.1h-94.6c1.7,28.3,22.5,43.6,46,43.6
			c14.5,0,27.5-5.6,35.3-15.5l5.6,5.6c-9.9,12.2-25.6,18.8-41.9,18.8C600.2,186.2,574.3,166.4,574.3,130.2z M669.5,125.7
			c-0.8-26.8-20.6-42.1-42.5-42.1c-21.3,0-41.5,14.5-43.4,42.1H669.5z M639,31.3h9.5l-18.2,31.8H621L639,31.3z"/>
		<path class="st0" d="M694.9,130.2c0-35.9,25.8-55.5,52.7-55.5c27.3,0,54.1,20,51,59.1H704c1.7,28.3,22.5,43.6,46,43.6
			c14.5,0,27.5-5.6,35.3-15.5l5.6,5.6c-9.9,12.2-25.6,18.8-41.9,18.8C720.7,186.2,694.9,166.4,694.9,130.2z M790.1,125.7
			c-0.8-26.8-20.6-42.1-42.5-42.1c-21.3,0-41.5,14.5-43.4,42.1H790.1z"/>
		<path class="st0" d="M861.2,130.4c0-36.3,26.2-55.8,53.5-55.8c20.4,0,37.8,11.2,44.8,26.8h0.4v-64h9.5v39.2h0.2V184h-9.5v-24.8
			h-0.6c-7,15.7-24.4,26.8-44.8,26.8C887.4,186.2,861.2,166.8,861.2,130.4z M915.5,177.3c22.1,0,44.8-15.5,44.8-46.9
			s-22.7-46.9-44.8-46.9s-44.6,15.3-44.6,46.9S893.4,177.3,915.5,177.3z"/>
		<path class="st0" d="M1086.8,184.1h-9.5v-19.6c-5.2,10.5-17.3,21.7-38,21.7c-23.1,0-42.9-14.2-42.9-46.3V76.7h9.5v62.4
			c0,26.2,15.9,38.2,35.3,38.2s36.1-12,36.1-38.2V76.7h9.5V184.1z"/>
		<path class="st0" d="M194.4,214.5h39.9l41.1,100.4l41.1-100.4h40.1v146.6h-36.3v-77.2h-1l-30.4,77.2h-26.6l-30.4-77.2h-1v77.2
			h-36.3V214.5H194.4z"/>
		<path class="st0" d="M369.5,307.4c0-37.6,26.8-55.8,50.8-55.8c18.8,0,28.9,10.3,29.7,12.2h0.6v-10.1h35.7v107.4h-35.7V351H450
			c-0.8,1.9-10.9,12.2-29.7,12.2C396.4,363.2,369.5,345,369.5,307.4z M428,331.6c12.8,0,23.5-8.9,23.5-24.2
			c0-15.3-10.7-24.2-23.5-24.2c-12.4,0-23.3,9.1-23.3,24.2C404.6,322.5,415.6,331.6,428,331.6z"/>
		<path class="st0" d="M504.6,214.5h35.7v146.6h-35.7L504.6,214.5L504.6,214.5z"/>
		<path class="st0" d="M580.8,397.9v-28.3c5.2,3.3,15.9,5,24.4,5c20,0,29.3-9.7,29.3-20V351h-1.2c-0.8,1.9-10.5,12.2-28.7,12.2
			c-24.2,0-51.2-18.4-51.2-55.8s27-55.8,51.2-55.8c18.2,0,27.9,10.3,28.7,12.2h1.2v-10.1h35.7v97.7c0,43.6-34.5,52.7-58.2,52.7
			C601,404.1,588,402.6,580.8,397.9z M611.9,331.6c12.8,0,23.3-8.9,23.3-24.2c0-15.3-10.5-24.2-23.3-24.2
			c-12.6,0-23.5,9.1-23.5,24.2S599.3,331.6,611.9,331.6z"/>
		<path class="st0" d="M688.3,253.8H724v29.3c3.5-17.8,13.8-31.4,32.8-31.4c2.5,0,5.2,0.2,8.1,1v34.1c-2.7-0.6-5-0.8-7.8-0.8
			c-21.5,0-33,14-33,33.4v41.7h-35.7L688.3,253.8L688.3,253.8z"/>
		<path class="st0" d="M769.7,307.6c0-36.3,27.3-56,55.1-56c27.3,0,60.1,18.8,52.7,69.6h-72.9c4.3,8.7,13.6,13,26,13
			c8.7,0,16.5-1.7,24.4-7l15.7,16.7c-8.7,10.9-23.7,19.2-44,19.2C796.5,363.2,769.7,343,769.7,307.6z M846.1,296.1
			c-2.5-10.1-11.8-14.7-20.9-14.7s-18.2,4.5-21.9,14.7H846.1z M835.1,208.3h27.7L840.3,241h-27L835.1,208.3z"/>
		<path class="st0" d="M960.1,247.8h-32.6v-33.2H1029v33.2h-32.6v113.4h-36.3L960.1,247.8L960.1,247.8z"/>
		<path class="st0" d="M1016.2,307.4c0-36.5,29.1-55.8,57.4-55.8c28.1,0,57.2,19.2,57.2,55.8c0,36.5-29.1,55.8-57.2,55.8
			C1045.3,363.2,1016.2,344,1016.2,307.4z M1073.6,331.2c12.2,0,22.1-9.5,22.1-23.7s-9.9-23.7-22.1-23.7c-12.4,0-22.3,9.5-22.3,23.7
			C1051.3,321.7,1061.2,331.2,1073.6,331.2z"/>
		<path class="st0" d="M1249.7,361.1H1214v-12.6c-6.2,8.7-16.3,14.7-30.6,14.7c-21.7,0-39.9-13.4-39.9-46.3l0.2-63.2h35.7l-0.2,57
			c0,11.2,5.4,20.9,17.6,20.9c12,0,17.1-9.7,17.1-20.9l0.2-57h35.7L1249.7,361.1z"/>
		<path class="st0" d="M1279.3,325.2v-43.4H1263v-28.1h16.3v-27.5h35.7v27.5h22.7v28.1H1315v38c0,5,2.9,11.1,13,11.1
			c2.5,0,6.4-0.4,10.1-1.7v27c-4.1,4.5-13.8,6-21.9,6C1294.8,362.4,1279.3,352,1279.3,325.2z"/>
	</g>
</g>
</svg>
